HIERARCHY
ROOT Hips
{
	OFFSET 0.00000 0.00000 0.00000
	CHANNELS 6 Xposition Yposition Zposition Zrotation Yrotation Xrotation 
	JOINT LHipJoint
	{
		OFFSET 0 0 0
		CHANNELS 3 Zrotation Yrotation Xrotation
		JOINT LeftUpLeg
		{
			OFFSET 1.36337 -1.57426 1.11036
			CHANNELS 3 Zrotation Yrotation Xrotation
			JOINT LeftLeg
			{
				OFFSET 2.38468 -6.55187 0.00000
				CHANNELS 3 Zrotation Yrotation Xrotation
				JOINT LeftFoot
				{
					OFFSET 2.37166 -6.51609 0.00000
					CHANNELS 3 Zrotation Yrotation Xrotation
					JOINT LeftToeBase
					{
						OFFSET 0.29078 -0.79891 2.01393
						CHANNELS 3 Zrotation Yrotation Xrotation
						End Site
						{
							OFFSET 0.00000 -0.00000 1.07924
						}
					}
				}
			}
		}
	}
	JOINT RHipJoint
	{
		OFFSET 0 0 0
		CHANNELS 3 Zrotation Yrotation Xrotation
		JOINT RightUpLeg
		{
			OFFSET -1.36349 -1.57426 1.11036
			CHANNELS 3 Zrotation Yrotation Xrotation
			JOINT RightLeg
			{
				OFFSET -2.29562 -6.30717 0.00000
				CHANNELS 3 Zrotation Yrotation Xrotation
				JOINT RightFoot
				{
					OFFSET -2.40985 -6.62100 0.00000
					CHANNELS 3 Zrotation Yrotation Xrotation
					JOINT RightToeBase
					{
						OFFSET -0.23197 -0.63733 1.92232
						CHANNELS 3 Zrotation Yrotation Xrotation
						End Site
						{
							OFFSET -0.00000 -0.00000 1.01562
						}
					}
				}
			}
		}
	}
	JOINT LowerBack
	{
		OFFSET 0 0 0
		CHANNELS 3 Zrotation Yrotation Xrotation
		JOINT Spine
		{
			OFFSET -0.08565 2.03602 -0.24562
			CHANNELS 3 Zrotation Yrotation Xrotation
			JOINT Spine1
			{
				OFFSET -0.00036 2.05693 0.00216
				CHANNELS 3 Zrotation Yrotation Xrotation
				JOINT Neck
				{
					OFFSET 0 0 0
					CHANNELS 3 Zrotation Yrotation Xrotation
					JOINT Neck1
					{
						OFFSET -0.03664 1.69515 0.31789
						CHANNELS 3 Zrotation Yrotation Xrotation
						JOINT Head
						{
							OFFSET 0.00932 1.70181 -0.46013
							CHANNELS 3 Zrotation Yrotation Xrotation
							End Site
							{
								OFFSET 0.01243 1.77620 -0.19377
							}
						}
					}
				}
				JOINT LeftShoulder
				{
					OFFSET 0 0 0
					CHANNELS 3 Zrotation Yrotation Xrotation
					JOINT LeftArm
					{
						OFFSET 3.74344 0.81315 -0.36647
						CHANNELS 3 Zrotation Yrotation Xrotation
						JOINT LeftForeArm
						{
							OFFSET 4.97185 -0.00000 -0.00000
							CHANNELS 3 Zrotation Yrotation Xrotation
							JOINT LeftHand
							{
								OFFSET 3.35811 -0.00000 0.00000
								CHANNELS 3 Zrotation Yrotation Xrotation
								JOINT LeftFingerBase
								{
									OFFSET 0 0 0
									CHANNELS 3 Zrotation Yrotation Xrotation
									JOINT LeftHandIndex1
									{
										OFFSET 0.62278 -0.00000 0.00000
										CHANNELS 3 Zrotation Yrotation Xrotation
										End Site
										{
											OFFSET 0.50210 -0.00000 0.00000
										}
									}
								}
								JOINT LThumb
								{
									OFFSET 0 0 0
									CHANNELS 3 Zrotation Yrotation Xrotation
									End Site
									{
										OFFSET 0.50976 -0.00000 0.50976
									}
								}
							}
						}
					}
				}
				JOINT RightShoulder
				{
					OFFSET 0 0 0
					CHANNELS 3 Zrotation Yrotation Xrotation
					JOINT RightArm
					{
						OFFSET -3.75385 0.50666 -0.06525
						CHANNELS 3 Zrotation Yrotation Xrotation
						JOINT RightForeArm
						{
							OFFSET -4.96493 -0.00000 -0.00000
							CHANNELS 3 Zrotation Yrotation Xrotation
							JOINT RightHand
							{
								OFFSET -3.34929 -0.00000 0.00000
								CHANNELS 3 Zrotation Yrotation Xrotation
								JOINT RightFingerBase
								{
									OFFSET 0 0 0
									CHANNELS 3 Zrotation Yrotation Xrotation
									JOINT RightHandIndex1
									{
										OFFSET -0.63804 -0.00000 0.00000
										CHANNELS 3 Zrotation Yrotation Xrotation
										End Site
										{
											OFFSET -0.51441 -0.00000 0.00000
										}
									}
								}
								JOINT RThumb
								{
									OFFSET 0 0 0
									CHANNELS 3 Zrotation Yrotation Xrotation
									End Site
									{
										OFFSET -0.52226 -0.00000 0.52226
									}
								}
							}
						}
					}
				}
			}
		}
	}
}
MOTION
Frames: 15
Frame Time: .0083333
-11.2947 2.301 -0.1256 0 0 0 0 0 0 -21 0 0 0 0 0 0 0 0 0 0 0 0 0 0 21 0 0 0 0 0 0 0 0 0 0 0 0 0 0 0 0 0 0 0 0 0 0 -16 0 0 21 0 0 11 0 0 0 -8 0 0 0 0 0 0 0 0 0 0 0 0 0 0 0 0 0 0 0 0 8 0 0 0 0 0 0 0 0 0 0 0 0 0 0 0 0 0
-11.2947 2.3010 -0.1256 -93.9563 0.9071 157.1550 0.0000 0.0000 0.0000 -21.0967 -18.7852 -17.3614 3.0401 10.7596 31.4735 0.4473 9.5929 12.7800 0.0430 1.3387 3.6813 0.0000 0.0000 0.0000 18.6646 -20.9192 -8.6522 -11.8885 -18.3431 65.6348 -0.8937 -5.6462 16.8624 -0.6746 -5.2521 14.6290 -0.0738 1.2912 23.7844 2.7430 0.1375 10.4316 2.9832 -0.7318 -1.7942 -6.4829 -0.0056 -25.6070 -16.2538 10.2057 25.7843 -3.3462 1.9037 14.0648 0.0000 0.0000 0.0000 69.2306 -73.3250 -9.1377 18.4905 -28.7807 -4.7831 -0.0000 0.0000 -54.7688 19.1397 17.9215 6.0958 -7.1250 0.0000 -0.0000 -8.6782 48.6827 -0.7938 0.0000 0.0000 0.0000 98.5188 17.5314 87.1526 -93.9254 59.9417 -63.3988 0.0000 -0.0000 -8.1399 -13.8045 -6.5377 1.6025 7.1250 -0.0000 -0.0000 10.8959 -36.5193 2.3062
-11.2768 2.2903 -0.0814 -93.9466 0.9166 156.7800 0.0000 0.0000 0.0000 -21.1938 -18.6411 -17.0003 2.9840 10.6691 31.1718 0.4659 9.7248 13.0245 0.0484 1.4198 3.9046 0.0000 0.0000 0.0000 18.4559 -20.8417 -8.5265 -12.0883 -18.4277 66.2685 -0.8520 -6.3644 16.4623 -0.6580 -5.1881 14.4459 0.0811 1.3099 24.6965 2.7162 0.1572 10.4285 2.8765 -0.7349 -2.2386 -6.3361 0.0723 -25.6175 -16.1912 10.2523 25.8767 -3.3395 1.9392 14.1075 -0.0000 -0.0000 0.0000 68.3635 -73.7763 -10.1122 18.0657 -28.2412 -4.5803 -0.0000 0.0000 -52.9690 18.1322 17.7080 5.6883 -7.1250 0.0000 -0.0000 -9.5730 48.3154 -0.7897 -0.0000 -0.0000 0.0000 98.0838 17.6110 86.9991 -94.7172 59.9158 -64.0841 0.0000 -0.0000 -7.6197 -13.3879 -6.8668 1.6300 7.1250 -0.0000 -0.0000 11.2982 -36.8265 2.3077
-11.2583 2.2796 -0.0374 -93.9373 0.9274 156.4050 0.0000 0.0000 0.0000 -21.2855 -18.5088 -16.6788 2.9438 10.6036 30.9542 0.4792 9.8401 13.2036 0.0500 1.4433 3.9694 0.0000 0.0000 0.0000 18.2388 -20.7146 -8.5320 -12.4606 -18.5786 67.4414 -0.7679 -6.9296 15.6643 -0.6410 -5.1219 14.2565 0.2399 1.3309 25.6075 2.6931 0.1794 10.4358 2.7707 -0.7393 -2.6671 -6.2757 0.0586 -25.6145 -16.2128 10.1863 25.8164 -3.3691 1.9170 14.0788 0.0000 0.0000 0.0000 67.4753 -74.2359 -11.1857 17.6449 -27.7001 -4.3829 -0.0000 0.0000 -50.9142 17.3335 17.4308 5.3412 -7.1250 0.0000 -0.0000 -10.2443 47.9183 -0.7449 0.0000 0.0000 0.0000 97.6614 17.8019 86.8406 -95.4242 59.8885 -64.6958 0.0000 -0.0000 -7.1627 -12.9026 -7.4723 1.7064 7.1250 -0.0000 -0.0000 11.8117 -37.4044 2.2460
-11.2409 2.2682 -0.0095 -93.9512 1.0156 156.0330 0.0000 0.0000 0.0000 -21.3784 -18.3163 -16.3665 2.9193 10.5632 30.8205 0.4864 9.9628 13.3173 0.0519 1.4706 4.0448 0.0000 0.0000 0.0000 17.9753 -20.5840 -8.5038 -12.9276 -18.7559 68.9006 -0.6571 -7.3434 14.5705 -0.6347 -5.0973 14.1862 0.3968 1.3275 26.3666 2.6674 0.1768 10.4487 2.6670 -0.7542 -3.0122 -6.3303 0.0149 -25.6115 -16.2357 10.1314 25.7484 -3.3777 1.8889 14.0453 -0.0000 -0.0000 0.0000 65.9372 -74.7940 -11.9108 17.2243 -27.1525 -4.1892 -0.0000 0.0000 -48.5674 16.5457 17.3081 5.0510 -7.1250 0.0000 -0.0000 -10.9461 47.6831 -0.7330 -0.0000 -0.0000 0.0000 97.2369 17.9217 86.7922 -96.0443 59.8615 -65.2321 0.0000 -0.0000 -6.6400 -12.5021 -8.0512 1.7788 7.1250 -0.0000 -0.0000 12.2573 -37.9570 2.1645
-11.0000 2.2999 0.4737 -92.9538 2.0150 155.7140 0.0000 0.0000 0.0000 -18.9747 -18.8542 -18.2637 2.9283 10.5780 30.8695 0.6452 10.8918 15.1817 0.0498 1.4401 3.9608 0.0000 0.0000 0.0000 20.7590 -18.5964 -11.7501 -13.8364 -19.0637 71.7043 -0.6504 -7.1054 14.4718 -0.5416 -4.7152 13.0981 1.0984 1.7491 33.0625 3.1145 0.9241 8.8751 2.4708 -0.4689 -7.2028 -6.1942 -0.0355 -25.7067 -16.1436 9.8499 25.5163 -3.4102 1.7950 13.9339 -0.0000 -0.0000 0.0000 66.4292 -74.5362 -13.7014 17.0256 -26.8915 -4.0989 -0.0000 0.0000 -47.0806 15.9726 17.2356 4.8476 -7.1250 0.0000 -0.0000 -11.4594 47.5305 -0.7246 -0.0000 -0.0000 0.0000 97.2346 19.1049 86.6870 -96.6097 59.8343 -65.7210 0.0000 -0.0000 -5.6178 -10.8718 -9.7226 1.8577 7.1250 -0.0000 -0.0000 13.9889 -39.4952 1.9420
-10.8569 2.3124 0.7179 -92.1668 2.5411 155.6810 0.0000 0.0000 0.0000 -17.3875 -19.2778 -19.5316 2.9836 10.6685 31.1698 0.7281 11.3169 16.0649 0.0524 1.4768 4.0618 0.0000 0.0000 0.0000 22.4133 -17.6055 -13.7299 -14.5594 -19.2750 73.9060 -0.5916 -6.9106 13.8126 -0.4281 -4.1988 11.6368 1.6817 1.8771 36.0919 3.3879 1.3318 8.0859 2.3509 -0.3322 -9.0683 -6.1438 -0.0768 -25.7776 -16.1475 9.7187 25.3860 -3.4416 1.7442 13.8831 -0.0000 -0.0000 0.0000 66.1396 -74.6489 -14.9548 16.7541 -26.5324 -3.9769 -0.0000 0.0000 -45.4288 15.5154 17.0340 4.6493 -7.1250 0.0000 -0.0000 -11.8225 47.2653 -0.6698 -0.0000 -0.0000 0.0000 97.6942 20.8745 87.7394 -96.4818 59.8406 -65.6104 0.0000 -0.0000 -6.4912 -11.2153 -11.4202 2.2483 7.1250 -0.0000 -0.0000 14.1045 -41.1971 1.3531
-10.8362 2.3086 0.7262 -91.5881 2.5871 155.9110 0.0000 0.0000 0.0000 -16.6714 -19.6006 -20.0566 3.0649 10.7994 31.6063 0.7149 11.2953 15.9399 0.0524 1.4767 4.0615 0.0000 0.0000 0.0000 23.0763 -17.5197 -14.3251 -14.9157 -19.3686 74.9827 -0.5207 -7.0629 13.0305 -0.2898 -3.4620 9.5679 2.1701 1.7328 35.9573 3.5975 1.3556 8.0341 2.3084 -0.3286 -9.0661 -6.1717 -0.1236 -25.8093 -16.2493 9.7038 25.3466 -3.4803 1.7235 13.8820 -0.0000 -0.0000 0.0000 67.5798 -74.2040 -14.2585 16.8627 -26.6764 -4.0255 -0.0000 0.0000 -47.6548 16.1874 16.9169 4.8283 -7.1250 0.0000 -0.0000 -11.1623 47.2386 -0.6241 -0.0000 -0.0000 0.0000 97.5853 20.9232 87.7034 -96.6210 59.8337 -65.7308 0.0000 -0.0000 -6.3786 -11.1775 -11.5090 2.2577 7.1250 -0.0000 -0.0000 14.1597 -41.2811 1.3286
-10.8196 2.3061 0.7269 -91.1133 2.6465 156.1350 0.0000 0.0000 0.0000 -16.0453 -19.8406 -20.6242 3.1704 10.9659 32.1649 0.6907 11.2508 15.7065 0.0537 1.4949 4.1117 0.0000 0.0000 0.0000 23.6482 -17.5157 -14.6904 -15.0553 -19.4034 75.4032 -0.4802 -7.4755 12.6289 -0.1750 -2.6946 7.4297 2.5633 1.5692 35.8145 3.7290 1.3213 7.9684 2.2544 -0.3447 -9.0751 -6.0524 -0.0262 -25.9313 -16.2723 9.8362 25.3912 -3.4858 1.7811 13.9425 -0.0000 -0.0000 0.0000 67.7344 -73.8026 -13.0407 17.0494 -26.9229 -4.1097 -0.0000 0.0000 -49.0581 16.5499 16.7476 4.8942 -7.1250 0.0000 -0.0000 -10.7749 47.1164 -0.5691 -0.0000 -0.0000 0.0000 97.5882 20.8591 87.8141 -96.7624 59.8265 -65.8530 0.0000 -0.0000 -6.3304 -11.1410 -11.3847 2.2262 7.1250 -0.0000 -0.0000 14.1597 -41.1554 1.3736
-10.8107 2.3093 0.7292 -90.7307 2.6450 156.3770 0.0000 0.0000 0.0000 -15.5250 -20.1313 -21.1762 3.2753 11.1279 32.7124 0.6690 11.2275 15.5006 0.0562 1.5299 4.2083 0.0000 0.0000 0.0000 24.1582 -17.5928 -15.0559 -15.0806 -19.4096 75.4795 -0.4570 -8.0915 12.4867 -0.0925 -1.9615 5.3993 2.9036 1.4577 35.5314 3.7915 1.3065 7.9765 2.1451 -0.3520 -8.9500 -5.8989 0.0416 -25.9843 -16.2410 9.8488 25.3867 -3.4961 1.8021 13.9524 -0.0000 -0.0000 0.0000 69.6536 -73.2660 -12.1510 17.2314 -27.1619 -4.1924 -0.0000 0.0000 -51.8411 17.3496 16.4392 5.0525 -7.1250 0.0000 -0.0000 -9.9430 46.9107 -0.4734 -0.0000 -0.0000 0.0000 97.6737 20.9566 87.8287 -96.6820 59.8306 -65.7835 0.0000 -0.0000 -6.4893 -11.2387 -11.1727 2.2050 7.1250 -0.0000 -0.0000 14.0226 -40.9553 1.4305
-10.8064 2.3101 0.7295 -90.4212 2.5976 156.6070 0.0000 0.0000 0.0000 -15.1268 -20.4007 -21.6446 3.3616 11.2586 33.1572 0.6509 11.1750 15.3163 0.0591 1.5685 4.3146 0.0000 0.0000 0.0000 24.5143 -17.7435 -15.4338 -15.1126 -19.4174 75.5755 -0.4345 -8.7164 12.3814 -0.0426 -1.3323 3.6637 3.1692 1.4289 35.0914 3.9181 1.3546 8.0993 2.0928 -0.3318 -8.7694 -6.0122 -0.0633 -25.9021 -16.1733 9.6743 25.3134 -3.4807 1.7317 13.8796 0.0000 0.0000 0.0000 73.3576 -72.6322 -11.3796 17.4812 -27.4878 -4.3071 -0.0000 0.0000 -56.3646 18.8643 16.1338 5.4238 -7.1250 0.0000 -0.0000 -8.4502 46.8007 -0.3781 0.0000 0.0000 0.0000 97.5902 21.0787 87.6265 -96.5676 59.8364 -65.6845 0.0000 -0.0000 -6.5103 -11.3705 -10.9291 2.1835 7.1250 -0.0000 -0.0000 13.8492 -40.7267 1.4918
-10.7992 2.3052 0.7253 -90.1674 2.5943 156.8020 0.0000 0.0000 0.0000 -14.8016 -20.6478 -22.0149 3.4325 11.3643 33.5186 0.6391 11.1273 15.1918 0.0613 1.5978 4.3954 0.0000 0.0000 0.0000 24.7430 -17.9104 -15.7462 -15.1462 -19.4255 75.6767 -0.4066 -9.3263 12.2381 -0.0123 -0.7164 1.9688 3.3964 1.3851 34.8212 4.0242 1.3843 8.0959 2.0716 -0.3181 -8.6679 -6.0921 -0.1222 -25.8517 -16.1590 9.6004 25.2792 -3.4744 1.6987 13.8452 0.0000 0.0000 0.0000 75.1558 -72.0988 -10.4678 17.8125 -27.9164 -4.4611 -0.0000 0.0000 -59.1892 19.7663 15.9419 5.6370 -7.1250 0.0000 -0.0000 -7.5600 46.7233 -0.3233 0.0000 0.0000 0.0000 97.4674 21.0384 87.4405 -96.7636 59.8264 -65.8540 0.0000 -0.0000 -6.3718 -11.2548 -10.8519 2.1456 7.1250 -0.0000 -0.0000 13.9299 -40.6404 1.5312
-10.7912 2.3022 0.7235 -89.9927 2.6489 156.9320 0.0000 0.0000 0.0000 -14.5349 -20.8367 -22.3017 3.4977 11.4602 33.8481 0.6265 11.1141 15.0688 0.0627 1.6153 4.4436 0.0000 0.0000 0.0000 24.9207 -17.9646 -15.9559 -15.1728 -19.4319 75.7565 -0.3725 -9.9386 12.0501 -0.0004 -0.1282 0.3523 3.5662 1.3203 34.7229 4.0498 1.3745 8.0478 2.0119 -0.3197 -8.6777 -6.0333 -0.0830 -25.8132 -16.1674 9.6214 25.2479 -3.4812 1.7174 13.8272 -0.0000 -0.0000 0.0000 74.4974 -72.2751 -10.5743 17.7308 -27.8111 -4.4229 -0.0000 0.0000 -58.3370 19.3850 16.0008 5.5399 -7.1250 0.0000 -0.0000 -7.9306 46.7331 -0.3413 -0.0000 -0.0000 0.0000 97.5150 20.9525 87.4572 -96.9199 59.8183 -65.9891 0.0000 -0.0000 -6.3606 -11.1258 -10.9062 2.1309 7.1250 -0.0000 -0.0000 14.0539 -40.6828 1.5304
-10.7897 2.3013 0.7166 -89.8113 2.7184 157.0660 0.0000 0.0000 0.0000 -14.2472 -20.9365 -22.5669 3.5571 11.5464 34.1457 0.6025 11.0743 14.8275 0.0630 1.6196 4.4555 0.0000 0.0000 0.0000 25.1279 -17.9672 -16.0772 -15.1789 -19.4334 75.7749 -0.3313 -10.5188 11.7959 -0.0070 0.5408 -1.4861 3.6997 1.2631 34.6072 4.1274 1.3719 7.9793 2.0238 -0.3167 -8.7074 -6.0868 -0.0786 -25.8024 -16.1765 9.6660 25.2613 -3.4674 1.7314 13.8342 0.0000 0.0000 0.0000 73.5521 -72.5431 -10.5221 17.6379 -27.6910 -4.3797 -0.0000 0.0000 -57.3943 19.0402 16.1497 5.4831 -7.1250 0.0000 -0.0000 -8.2901 46.8407 -0.3791 0.0000 0.0000 0.0000 97.4918 20.8584 87.5622 -96.8558 59.8217 -65.9337 0.0000 -0.0000 -6.3952 -11.1555 -10.9100 2.1375 7.1250 -0.0000 -0.0000 14.0292 -40.6891 1.5254
-10.7949 2.3010 0.6996 -89.5491 2.7525 157.2610 0.0000 0.0000 0.0000 -13.8994 -21.0467 -22.8169 3.5966 11.6033 34.3426 0.5829 11.0426 14.6286 0.0633 1.6233 4.4657 0.0000 0.0000 0.0000 25.3977 -18.0902 -16.2015 -15.1674 -19.4306 75.7404 -0.2803 -11.1001 11.4540 -0.0308 1.1326 -3.1138 3.8638 1.1920 34.3086 4.2540 1.3589 7.9386 2.0730 -0.3166 -8.6382 -6.1271 -0.0756 -25.8451 -16.2146 9.7414 25.3309 -3.4648 1.7498 13.8828 -0.0000 -0.0000 0.0000 73.3593 -72.5319 -9.9433 17.6986 -27.7695 -4.4079 -0.0000 0.0000 -57.9037 19.2372 16.0853 5.5226 -7.1250 0.0000 -0.0000 -8.0898 46.8007 -0.3618 -0.0000 -0.0000 0.0000 97.3569 20.7761 87.6239 -96.7966 59.8247 -65.8826 0.0000 -0.0000 -6.3788 -11.3489 -10.7946 2.1528 7.1250 -0.0000 -0.0000 13.8351 -40.5921 1.5372
